<svg width="18" height="17" viewBox="37 30 23 17" fill="none" xmlns="http://www.w3.org/2000/svg">
<g filter="url(#filter0_d_229_396)">
<path d="M50.2884 47C52.8906 47 55 44.863 55 42.2268C55 39.5907 52.8906 37.4536 50.2884 37.4536C47.6863 37.4536 45.5768 39.5907 45.5768 42.2268C45.5768 44.863 47.6863 47 50.2884 47Z" fill="#00A86C"/>
<path d="M40.4003 33.6224H48.7408C49.3812 33.6224 49.9072 33.0894 49.9072 32.4407V31.1817C49.9072 30.5329 49.3812 30 48.7408 30H40.4003C39.7599 30 39.2414 30.5329 39.2414 31.1817V32.4407C39.2414 33.0894 39.7599 33.6224 40.4003 33.6224Z" fill="#00A86C"/>
<path d="M40.385 34.6959C40.1411 34.9199 40.0038 35.2443 40.0038 35.5764V36.8354C40.0038 37.4842 40.5223 38.0171 41.1627 38.0171H46.5604C46.5756 38.0016 46.5909 37.9862 46.6061 37.9785C46.6214 37.963 46.6748 37.9167 46.7281 37.8626C47.7116 37.0285 48.9772 36.565 50.2885 36.565C50.4257 36.565 50.5553 36.565 50.6697 36.5805V35.5764C50.6697 35.2366 50.5248 34.9199 50.2809 34.6959H40.4003C40.3926 34.6959 40.385 34.6959 40.385 34.6959Z" fill="#00A86C"/>
<path d="M44.7002 42.2264C44.7002 41.0911 45.028 40.0098 45.6303 39.0984H37.3888C37.1372 39.3224 37 39.639 37 39.9712V41.2301C37 41.8789 37.5261 42.4118 38.1665 42.4118H44.7002V42.2264Z" fill="#00A86C"/>
<path d="M44.845 43.4931H38.8831C38.6391 43.7171 38.5019 44.026 38.5019 44.3581V45.6248C38.5019 46.2736 39.028 46.8065 39.6684 46.8065H47.0026C45.92 46.011 45.1423 44.837 44.845 43.4931Z" fill="#00A86C"/>
</g>
<defs>
<filter id="filter0_d_229_396" x="0" y="0" width="80" height="79" filterUnits="userSpaceOnUse" color-interpolation-filters="sRGB">
<feFlood flood-opacity="0" result="BackgroundImageFix"/>
<feColorMatrix in="SourceAlpha" type="matrix" values="0 0 0 0 0 0 0 0 0 0 0 0 0 0 0 0 0 0 127 0" result="hardAlpha"/>
<feMorphology radius="1" operator="dilate" in="SourceAlpha" result="effect1_dropShadow_229_396"/>
<feOffset dx="-6" dy="1"/>
<feGaussianBlur stdDeviation="15"/>
<feComposite in2="hardAlpha" operator="out"/>
<feColorMatrix type="matrix" values="0 0 0 0 0.113725 0 0 0 0 0.796078 0 0 0 0 0.54902 0 0 0 0.3 0"/>
<feBlend mode="normal" in2="BackgroundImageFix" result="effect1_dropShadow_229_396"/>
<feBlend mode="normal" in="SourceGraphic" in2="effect1_dropShadow_229_396" result="shape"/>
</filter>
</defs>
</svg>
