<svg width="19" height="23" viewBox="0 0 20 30"  fill="none" xmlns="http://www.w3.org/2000/svg">
<g>
<path d="M15.841 15.2296C15.6402 15.2296 15.4394 15.4065 15.4394 15.9993C15.4394 16.5921 15.6402 16.769 15.841 16.769C16.0417 16.769 16.2425 16.5921 16.2425 15.9993C16.2425 15.4065 16.0417 15.2296 15.841 15.2296Z" fill="#E6E6F8"/>
<path d="M11.1591 12.3099C10.9583 12.3099 10.7576 12.4869 10.7576 13.0796C10.7576 13.6724 10.9583 13.8494 11.1591 13.8494C11.3599 13.8494 11.5607 13.6724 11.5607 13.0796C11.5607 12.4869 11.3599 12.3099 11.1591 12.3099Z" fill="#E6E6F8"/>
<path d="M20.447 8.15963C18.4355 6.00583 17.24 4.10985 16.5913 2.89854C15.8888 1.58651 15.6586 0.772934 15.6568 0.76646C15.5464 0.36191 15.1033 0.148889 14.7184 0.31532L14.7008 0.322959C14.6135 0.360682 12.5499 1.273 11.3936 3.51483C10.8132 4.64026 10.6971 5.89329 10.702 6.74621C10.7048 7.24259 10.342 7.67359 9.8394 7.77102C9.48701 7.83927 9.12451 7.73307 8.87017 7.48651L8.05258 6.69391C7.74832 6.39894 7.25419 6.43822 7.00035 6.77755C6.95068 6.84396 5.78109 8.40768 5.56816 8.72012C4.52839 10.246 3.98621 12.0234 4.00027 13.8603C4.0191 16.3137 5.0143 18.6122 6.80254 20.3325C8.59069 22.0527 10.9692 23 13.5001 23C18.7384 23 23 18.8686 23 13.7904C23 11.9492 22.0695 9.89685 20.447 8.15963ZM15.841 17.7245C14.8736 17.7245 14.1434 17.1052 14.1434 15.9993C14.1434 14.9022 14.8735 14.274 15.841 14.274C16.8084 14.274 17.5385 14.9022 17.5385 15.9993C17.5385 17.1052 16.8083 17.7245 15.841 17.7245ZM14.7217 11.7103C14.8398 11.5426 15.0321 11.4429 15.2372 11.4429C15.7481 11.4429 16.0468 12.0187 15.7526 12.4364L12.2784 17.3686C12.1603 17.5363 11.968 17.636 11.7629 17.636C11.252 17.636 10.9533 17.0602 11.2475 16.6425L14.7217 11.7103ZM9.46165 13.0796C9.46165 11.9826 10.1917 11.3544 11.1592 11.3544C12.1266 11.3544 12.8567 11.9826 12.8567 13.0796C12.8567 14.1856 12.1266 14.8049 11.1592 14.8049C10.1917 14.8049 9.46165 14.1856 9.46165 13.0796Z" fill="#E6E6F8"/>
</g>
<defs>

</defs>
</svg>
