<svg width="42" height="42" viewBox="0 0 42 42" fill="none" xmlns="http://www.w3.org/2000/svg">
<g filter="url(#filter0_d_573_155)">
<path fill-rule="evenodd" clip-rule="evenodd" d="M20.0414 6.25624C17.4332 7.77726 14.1333 8.81837 11.6428 9.16664C10.7388 9.29306 9.99793 10.0361 10 10.9492L10.0013 11.4956C9.96779 18.1425 10.5264 23.9606 20.4104 27.8892C20.782 28.0368 21.2069 28.037 21.5785 27.8893C31.4707 23.9607 32.0323 18.1426 31.9987 11.4956L31.9985 10.9444C31.998 10.0332 31.2578 9.28375 30.3579 9.14253C27.9949 8.77171 24.5478 7.74148 21.9424 6.25154C21.3549 5.91551 20.6261 5.91523 20.0414 6.25624ZM25.0763 15.5816C25.5058 15.1518 25.5058 14.4551 25.0763 14.0253C24.6467 13.5956 23.9501 13.5956 23.5205 14.0253L19.8981 17.6489L18.4759 16.2262C18.0463 15.7964 17.3498 15.7964 16.9202 16.2262C16.4906 16.6559 16.4906 17.3527 16.9202 17.7824L19.1203 19.9833C19.5499 20.4131 20.2464 20.4131 20.676 19.9833L25.0763 15.5816Z" fill="url(#paint0_linear_573_155)"/>
</g>
<defs>
<linearGradient id="paint0_linear_573_155" x1="20.9995" y1="6" x2="20.9995" y2="28" gradientUnits="userSpaceOnUse">
<stop stop-color="#E6E6F8"/>
<stop offset="1" stop-color="#E6E6F8"/>
</linearGradient>
</defs>
</svg>
